PathFileType	4	(x/y/z)	S04_P20_T17.trc
DataRate	CameraRate	NumFrames	NumMarkers	Units	OrigDataRate	OrigDataStartFrame	OrigNumFrames
240	240	10	51	mm	240	93	370
Frame#	Time	Sternum			R.Acromium			L.Acromium			Top.Head			R.ASIS			L.ASIS			R.PSIS			L.PSIS			R.Great.Tro			L.Great.Tro			R.Iliac.Crest			L.Iliac.Crest			V.Sacral			R.Thigh.Upper.Post			R.Thigh.Lower.Ant			R.Thigh.Lower.Post			R.Thigh.Upper.Ant			R.Knee.Lat			R.Knee.Med			R.Shank.Upper.Post			R.Shank.Lower.Ant			R.Shank.Lower.Post			R.Shank.Upper.Ant			R.Ankle.Lat			R.Ankle.Med			R.Heel.Upper			R.Heel.Med			R.Heel.Lat			R.Toe.Lat			R.Toe.Med			R.Toe.Tip			L.Thigh.Upper.Post			L.Thigh.Lower.Ant			L.Thigh.Lower.Post			L.Thigh.Upper.Ant			L.Knee.Lat			L.Knee.Med			L.Shank.Upper.Post			L.Shank.Lower.Ant			L.Shank.Lower.Post			L.Shank.Upper.Ant			L.Ankle.Lat			L.Ankle.Med			L.Heel.Upper			L.Heel.Med			L.Heel.Lat			L.Toe.Lat			L.Toe.Med			L.Toe.Tip			Cervical.Spine			Back			
		X1	Y1	Z1	X2	Y2	Z2	X3	Y3	Z3	X4	Y4	Z4	X5	Y5	Z5	X6	Y6	Z6	X7	Y7	Z7	X8	Y8	Z8	X9	Y9	Z9	X10	Y10	Z10	X11	Y11	Z11	X12	Y12	Z12	X13	Y13	Z13	X14	Y14	Z14	X15	Y15	Z15	X16	Y16	Z16	X17	Y17	Z17	X18	Y18	Z18	X19	Y19	Z19	X20	Y20	Z20	X21	Y21	Z21	X22	Y22	Z22	X23	Y23	Z23	X24	Y24	Z24	X25	Y25	Z25	X26	Y26	Z26	X27	Y27	Z27	X28	Y28	Z28	X29	Y29	Z29	X30	Y30	Z30	X31	Y31	Z31	X32	Y32	Z32	X33	Y33	Z33	X34	Y34	Z34	X35	Y35	Z35	X36	Y36	Z36	X37	Y37	Z37	X38	Y38	Z38	X39	Y39	Z39	X40	Y40	Z40	X41	Y41	Z41	X42	Y42	Z42	X43	Y43	Z43	X44	Y44	Z44	X45	Y45	Z45	X46	Y46	Z46	X47	Y47	Z47	X48	Y48	Z48	X49	Y49	Z49	X50	Y50	Z50	X51	Y51	Z51	

93	0.38333	-840.27	1277.9	253.17	-951.66	1512.8	430.8	-969.68	1497.2	81.373	-880.67	1832.3	239.76	-883.91	1003.5	388.79	NaN	NaN	NaN	NaN	NaN	NaN	NaN	NaN	NaN	-962.32	924.65	461.54	-1023.2	932.03	86.844	-965.23	1093.5	436.17	-992.87	1098.9	101.46	-1120.9	996.98	265.78	-879.56	675.31	456.16	-782.62	622.85	417.49	-849.11	589.9	441.55	-810.94	728.88	437.64	-806.49	535.13	431.5	-827.37	522.21	297.59	-846.56	303.7	427.79	-764.88	238.06	394.16	-834.04	235.06	414.34	-780.85	306.41	415.85	-801.18	121.87	397.06	-772.51	139.79	312.36	-851.15	77.498	333.98	-830.4	51.319	305.79	-844.7	46.041	368.35	-686.74	72.621	442.05	-634.85	84.396	330.69	-585.93	115.46	385.61	-1058.1	702.3	99.367	-987.61	597.95	101.11	-1057.7	612.99	109.67	-992.64	687.55	86.212	-1030	512.56	113.74	-1024.1	499.12	237.48	-1144.9	347.33	116.6	-1088.9	251.26	117.32	-1149.6	270.68	122.65	-1083	327.58	110.19	-1135.6	106.21	136.44	-1132.7	113.14	230.38	-1216.1	76.154	180.87	-1209.5	49.053	213.02	-1212.7	49.274	151.71	-1028.8	43.327	111.57	-996.6	43.371	228.17	-939.11	53.475	178.65	-1004.6	1562.1	260.45	-1101.2	1307.4	244.78
94	0.3875	-834.79	1277.2	253.4	-946.21	1512.1	431.1	-964.14	1496.5	81.636	-875.23	1831.7	240.05	-878.32	1002.9	388.82	NaN	NaN	NaN	NaN	NaN	NaN	NaN	NaN	NaN	-956.81	924.02	461.82	-1018.4	931.55	87.107	-959.5	1092.8	436.36	-987.66	1098.3	101.69	-1115.4	996.42	266.23	-874.94	674.42	456.49	-778.06	621.91	417.85	-844.59	589.01	441.87	-806.32	727.96	437.94	-801.29	534.72	431.94	-822.62	521.14	297.95	-836.28	302.46	428.68	-753.21	238.68	394.77	-822.24	234.1	415.3	-770.68	306.69	416.42	-786.7	121.62	397.98	-758.96	140.02	313.06	-836.05	76.02	335.24	-814.92	50.209	307	-828.75	44.793	369.68	-670.88	74.957	442.41	-619.92	87.49	330.69	-571.37	119.8	385.24	-1054.6	702.22	99.616	-984.58	597.52	101.39	-1054.5	612.91	109.89	-989.15	687.14	86.509	-1027.5	512.29	113.87	-1021.7	498.84	237.66	-1143.2	347.83	116.71	-1087.9	251.35	117.48	-1148.5	271.11	122.89	-1081.5	327.64	110.35	-1135.5	106.42	136.7	-1132.4	113.34	230.61	-1216	76.401	181.14	-1209.4	49.193	213.23	-1212.6	49.551	151.93	-1028.7	43.335	111.64	-996.51	43.194	228.23	-938.98	53.216	178.67	-999.18	1561.4	260.7	-1095.4	1306.7	244.99
95	0.39167	-829.3	1276.5	253.64	-940.76	1511.4	431.42	-958.61	1495.9	81.922	-869.79	1831	240.36	-872.7	1002.2	388.85	NaN	NaN	NaN	NaN	NaN	NaN	NaN	NaN	NaN	-951.25	923.37	462.09	-1013.5	931.05	87.37	-953.79	1092.1	436.57	-982.43	1097.7	101.93	-1109.8	995.83	266.7	-870.3	673.5	456.85	-773.49	620.95	418.22	-840.05	588.09	442.2	-801.68	727.01	438.26	-796.1	534.28	432.4	-817.87	520.06	298.32	-826.15	301.3	429.55	-741.8	239.34	395.36	-810.67	233.26	416.22	-760.7	307.01	416.98	-772.56	121.51	398.88	-745.74	140.34	313.73	-821.32	74.712	336.46	-799.81	49.263	308.18	-813.16	43.727	370.99	-655.44	77.372	442.71	-605.41	90.63	330.65	-557.24	124.15	384.84	-1050.9	702.1	99.863	-981.47	597.07	101.69	-1051.3	612.82	110.12	-985.59	686.72	86.813	-1025	512.01	114.02	-1019.1	498.55	237.84	-1141.4	348.35	116.82	-1086.9	251.44	117.64	-1147.4	271.55	123.14	-1080.1	327.7	110.53	-1135.5	106.64	136.97	-1132.1	113.56	230.83	-1215.9	76.68	181.43	-1209.3	49.362	213.46	-1212.5	49.86	152.16	-1028.7	43.341	111.71	-996.42	43.018	228.29	-938.84	52.948	178.68	-993.73	1560.8	260.98	-1089.7	1306	245.23
96	0.39583	-823.81	1275.8	253.89	-935.29	1510.6	431.76	-953.1	1495.2	82.233	-864.35	1830.4	240.69	-867.07	1001.5	388.88	NaN	NaN	NaN	NaN	NaN	NaN	NaN	NaN	NaN	-945.65	922.7	462.37	-1008.7	930.54	87.633	-948.1	1091.4	436.79	-977.18	1097.1	102.18	-1104.3	995.22	267.17	-865.62	672.57	457.24	-768.89	619.97	418.59	-835.47	587.16	442.54	-797	726.04	438.58	-790.89	533.82	432.88	-813.11	518.97	298.69	-816.2	300.23	430.39	-730.65	240.04	395.94	-799.35	232.51	417.11	-750.92	307.34	417.53	-758.8	121.53	399.74	-732.87	140.74	314.37	-806.96	73.556	337.65	-785.08	48.462	309.32	-797.97	42.821	372.25	-640.45	79.834	442.97	-591.36	93.789	330.59	-543.57	128.49	384.42	-1047.2	701.96	100.11	-978.27	596.62	101.99	-1048	612.7	110.35	-981.96	686.28	87.124	-1022.4	511.71	114.19	-1016.5	498.25	238.04	-1139.6	348.89	116.95	-1085.9	251.54	117.82	-1146.3	272	123.43	-1078.6	327.76	110.72	-1135.4	106.89	137.25	-1131.8	113.81	231.07	-1215.8	76.995	181.74	-1209.2	49.564	213.7	-1212.4	50.205	152.41	-1028.7	43.346	111.8	-996.31	42.845	228.35	-938.69	52.671	178.68	-988.28	1560.1	261.29	-1084	1305.3	245.49
97	0.4	-818.31	1275.1	254.16	-929.82	1509.9	432.12	-947.59	1494.5	82.57	-858.9	1829.7	241.03	-861.4	1000.8	388.91	NaN	NaN	NaN	NaN	NaN	NaN	NaN	NaN	NaN	-940	922.01	462.63	-1003.7	930	87.896	-942.42	1090.6	437.01	-971.9	1096.5	102.44	-1098.8	994.58	267.66	-860.89	671.63	457.63	-764.24	618.98	418.96	-830.85	586.22	442.89	-792.27	725.06	438.9	-785.67	533.35	433.38	-808.33	517.87	299.07	-806.45	299.25	431.21	-719.78	240.75	396.5	-788.3	231.84	417.95	-741.34	307.69	418.07	-745.43	121.64	400.56	-720.38	141.21	314.98	-793.02	72.534	338.79	-770.77	47.79	310.4	-783.2	42.056	373.46	-625.94	82.307	443.18	-577.78	96.936	330.5	-530.38	132.78	383.98	-1043.4	701.8	100.36	-974.97	596.16	102.31	-1044.6	612.57	110.59	-978.24	685.84	87.44	-1019.7	511.41	114.36	-1013.7	497.95	238.26	-1137.7	349.45	117.08	-1084.8	251.65	118	-1145.1	272.47	123.74	-1077	327.83	110.92	-1135.3	107.16	137.55	-1131.4	114.08	231.32	-1215.7	77.352	182.06	-1209.1	49.806	213.96	-1212.3	50.592	152.68	-1028.7	43.35	111.89	-996.19	42.673	228.41	-938.53	52.385	178.69	-982.83	1559.4	261.62	-1078.3	1304.6	245.78
98	0.40417	-812.81	1274.3	254.45	-924.35	1509.1	432.5	-942.09	1493.8	82.931	-853.45	1829	241.39	-855.72	1000.1	388.94	NaN	NaN	NaN	NaN	NaN	NaN	NaN	NaN	NaN	-934.3	921.32	462.89	-998.79	929.45	88.159	-936.74	1089.9	437.25	-966.59	1095.8	102.72	-1093.3	993.92	268.15	-856.09	670.7	458.05	-759.53	618	419.32	-826.16	585.28	443.25	-787.48	724.08	439.23	-780.41	532.86	433.88	-803.51	516.78	299.45	-796.91	298.34	431.99	-709.22	241.47	397.03	-777.54	231.25	418.75	-731.98	308.04	418.59	-732.5	121.82	401.34	-708.29	141.71	315.55	-779.51	71.627	339.86	-756.92	47.226	311.42	-768.9	41.408	374.6	-611.94	84.756	443.34	-564.7	100.04	330.39	-517.68	136.97	383.54	-1039.5	701.62	100.6	-971.58	595.68	102.63	-1041.2	612.41	110.83	-974.45	685.38	87.762	-1016.8	511.09	114.55	-1010.9	497.65	238.48	-1135.8	350.03	117.23	-1083.6	251.77	118.2	-1143.9	272.95	124.07	-1075.4	327.9	111.13	-1135.2	107.47	137.84	-1131	114.37	231.57	-1215.6	77.754	182.41	-1208.9	50.095	214.23	-1212.2	51.027	152.97	-1028.7	43.355	111.99	-996.07	42.505	228.46	-938.37	52.091	178.69	-977.39	1558.7	261.98	-1072.7	1303.9	246.08
99	0.40833	-807.31	1273.6	254.75	-918.87	1508.4	432.9	-936.6	1493.1	83.317	-848	1828.3	241.77	-850.02	999.43	388.98	NaN	NaN	NaN	NaN	NaN	NaN	NaN	NaN	NaN	-928.53	920.61	463.15	-993.8	928.89	88.42	-931.08	1089.1	437.5	-961.24	1095.2	103.01	-1087.7	993.24	268.65	-851.21	669.78	458.47	-754.74	617.03	419.67	-821.39	584.35	443.62	-782.61	723.12	439.56	-775.12	532.36	434.39	-798.65	515.71	299.83	-787.59	297.49	432.72	-698.96	242.17	397.54	-767.07	230.72	419.48	-722.85	308.37	419.08	-720.01	122.04	402.05	-696.61	142.24	316.07	-766.48	70.817	340.86	-743.54	46.751	312.36	-755.09	40.856	375.65	-598.48	87.145	443.44	-552.13	103.07	330.27	-505.5	141.04	383.11	-1035.6	701.42	100.85	-968.08	595.2	102.96	-1037.6	612.24	111.08	-970.56	684.91	88.088	-1013.9	510.75	114.75	-1007.9	497.34	238.71	-1133.7	350.62	117.4	-1082.5	251.9	118.41	-1142.6	273.44	124.42	-1073.7	327.98	111.35	-1135	107.81	138.15	-1130.6	114.7	231.83	-1215.5	78.209	182.76	-1208.8	50.438	214.52	-1212	51.515	153.27	-1028.7	43.36	112.09	-995.93	42.34	228.52	-938.2	51.788	178.69	-971.95	1558	262.37	-1067.1	1303.2	246.41
100	0.4125	-801.8	1272.9	255.07	-913.39	1507.6	433.32	-931.12	1492.4	83.729	-842.54	1827.5	242.16	-844.3	998.74	389.02	NaN	NaN	NaN	NaN	NaN	NaN	NaN	NaN	NaN	-922.71	919.91	463.39	-988.76	928.31	88.681	-925.42	1088.3	437.76	-955.85	1094.5	103.32	-1082.2	992.54	269.17	-846.24	668.88	458.9	-749.86	616.09	420	-816.53	583.45	443.98	-777.64	722.18	439.87	-769.78	531.85	434.88	-793.72	514.66	300.22	-778.5	296.7	433.4	-689.03	242.84	398.02	-756.93	230.24	420.16	-713.96	308.67	419.55	-708.01	122.29	402.7	-685.38	142.76	316.54	-753.95	70.084	341.78	-730.68	46.346	313.22	-741.82	40.376	376.62	-585.58	89.44	443.48	-540.09	105.99	330.12	-493.84	144.94	382.67	-1031.5	701.2	101.1	-964.48	594.72	103.3	-1033.9	612.04	111.34	-966.59	684.43	88.417	-1010.9	510.41	114.97	-1004.8	497.02	238.95	-1131.6	351.24	117.58	-1081.2	252.05	118.62	-1141.3	273.96	124.78	-1071.9	328.07	111.58	-1134.9	108.18	138.45	-1130.2	115.05	232.09	-1215.3	78.722	183.13	-1208.6	50.843	214.82	-1211.9	52.061	153.58	-1028.6	43.365	112.2	-995.78	42.181	228.57	-938.01	51.477	178.69	-966.51	1557.2	262.79	-1061.6	1302.4	246.75
101	0.41667	-796.28	1272.2	255.42	-907.91	1506.8	433.77	-925.64	1491.7	84.166	-837.07	1826.8	242.56	-838.57	998.05	389.06	NaN	NaN	NaN	NaN	NaN	NaN	NaN	NaN	NaN	-916.83	919.2	463.64	-983.69	927.72	88.94	-919.75	1087.5	438.04	-950.42	1093.9	103.64	-1076.6	991.81	269.69	-841.16	668	459.32	-744.89	615.17	420.32	-811.56	582.57	444.34	-772.57	721.26	440.18	-764.38	531.34	435.36	-788.73	513.64	300.59	-769.65	295.97	434.03	-679.43	243.45	398.45	-747.13	229.79	420.77	-705.3	308.93	419.98	-696.5	122.54	403.28	-674.59	143.25	316.96	-741.93	69.41	342.61	-718.35	45.992	313.99	-729.1	39.949	377.5	-573.26	91.609	443.48	-528.6	108.78	329.96	-482.72	148.64	382.25	-1027.4	700.95	101.35	-960.77	594.22	103.64	-1030.1	611.83	111.6	-962.52	683.94	88.749	-1007.7	510.05	115.19	-1001.5	496.69	239.19	-1129.5	351.86	117.78	-1079.9	252.21	118.83	-1139.9	274.51	125.16	-1070.1	328.16	111.8	-1134.7	108.6	138.76	-1129.7	115.44	232.36	-1215.1	79.302	183.51	-1208.4	51.318	215.12	-1211.8	52.673	153.9	-1028.6	43.371	112.31	-995.63	42.028	228.62	-937.82	51.16	178.68	-961.08	1556.5	263.23	-1056	1301.7	247.12
102	0.42083	-790.77	1271.4	255.78	-902.43	1506	434.23	-920.17	1491	84.628	-831.6	1826.1	242.98	-832.82	997.38	389.12	NaN	NaN	NaN	NaN	NaN	NaN	NaN	NaN	NaN	-910.89	918.5	463.89	-978.57	927.13	89.199	-914.09	1086.7	438.32	-944.95	1093.2	103.98	-1071	991.07	270.22	-835.97	667.15	459.74	-739.8	614.29	420.6	-806.47	581.73	444.68	-767.39	720.38	440.48	-758.91	530.82	435.81	-783.66	512.66	300.96	-761.05	295.27	434.61	-670.18	243.99	398.84	-737.67	229.37	421.32	-696.89	309.14	420.37	-685.52	122.76	403.78	-664.28	143.71	317.33	-730.47	68.78	343.35	-706.58	45.668	314.67	-716.97	39.552	378.27	-561.54	93.62	443.41	-517.66	111.4	329.78	-472.15	152.11	381.83	-1023.2	700.69	101.61	-956.94	593.72	103.99	-1026.2	611.59	111.88	-958.36	683.45	89.083	-1004.5	509.69	115.41	-998.14	496.35	239.44	-1127.2	352.51	118	-1078.5	252.39	119.04	-1138.4	275.08	125.55	-1068.2	328.26	112.03	-1134.4	109.06	139.07	-1129.2	115.87	232.61	-1214.9	79.956	183.89	-1208.2	51.871	215.44	-1211.6	53.355	154.22	-1028.6	43.376	112.42	-995.46	41.883	228.66	-937.62	50.835	178.67	-955.65	1555.8	263.71	-1050.5	1300.9	247.51
